HIERARCHY
ROOT Hips
{
  OFFSET 0 0 0
  CHANNELS 6 Xposition Yposition Zposition Zrotation Yrotation Xrotation
  JOINT LeftThigh
  {
    OFFSET 8.409438 0 -5.917753
    CHANNELS 3 Zrotation Yrotation Xrotation
    JOINT LeftLeg
    {
      OFFSET 0 0 -42.358652
      CHANNELS 3 Zrotation Yrotation Xrotation
      JOINT LeftFoot
      {
        OFFSET 0 0 -39.357303
        CHANNELS 3 Zrotation Yrotation Xrotation
      }
    }
  }
  JOINT RightThigh
  {
    OFFSET -8.409438 0 -5.917753
    CHANNELS 3 Zrotation Yrotation Xrotation
    JOINT RightLeg
    {
      OFFSET 0 0 -42.358652
      CHANNELS 3 Zrotation Yrotation Xrotation
      JOINT RightFoot
      {
        OFFSET 0 0 -39.357303
        CHANNELS 3 Zrotation Yrotation Xrotation
      }
    }
  }
  JOINT SpineLow
  {
    OFFSET 0 0 4.719101
    CHANNELS 3 Zrotation Yrotation Xrotation
    JOINT SpineMid
    {
      OFFSET 0 0 12.899191
      CHANNELS 3 Zrotation Yrotation Xrotation
      JOINT Chest
      {
        OFFSET 0 0 12.899191
        CHANNELS 3 Zrotation Yrotation Xrotation
        JOINT LeftShoulder
        {
          OFFSET 7.550562 1.41573 9.438202
          CHANNELS 3 Zrotation Yrotation Xrotation
          JOINT LeftArm
          {
            OFFSET 9.155056 0 4.247191
            CHANNELS 3 Zrotation Yrotation Xrotation
            JOINT LeftForearm
            {
              OFFSET 0 0 25.771955
              CHANNELS 3 Zrotation Yrotation Xrotation
              JOINT LeftHand
              {
                OFFSET 0 0 25.197169
                CHANNELS 3 Zrotation Yrotation Xrotation
              }
            }
          }
        }
        JOINT RightShoulder
        {
          OFFSET -7.550562 1.41573 9.438202
          CHANNELS 3 Zrotation Yrotation Xrotation
          JOINT RightArm
          {
            OFFSET -9.155056 0 4.247191
            CHANNELS 3 Zrotation Yrotation Xrotation
            JOINT RightForearm
            {
              OFFSET 0 0 -25.771955
              CHANNELS 3 Zrotation Yrotation Xrotation
              JOINT RightHand
              {
                OFFSET 0 0 -25.197169
                CHANNELS 3 Zrotation Yrotation Xrotation
              }
            }
          }
        }
        JOINT Neck
        {
          OFFSET 0 0 15.101124
          CHANNELS 3 Zrotation Yrotation Xrotation
          JOINT Head
          {
            OFFSET 0 0 11.325843
            CHANNELS 3 Zrotation Yrotation Xrotation
            End Site
            {
              OFFSET 0 0 14.157303
            }
          }
        }
      }
    }
  }
}
MOTION
Frames: 13
Frame Time: 0.0
0.0  101.685394  0.0  -1.064682  -12.510252  -100.057994  23.561974  -26.984249  4.753519  -1.803693  12.448727  25.505188  1.80496  4.368119  3.364828  -4.474391  6.394794  -1.597373  4.979513  2.45052  17.049701  2.989473  0.27758  -0.61586  -3.858138  0.86229  2.174738  -10.463755  2.694225  5.79258  -10.463755  2.694225  5.79258  -13.933304  27.722734  10.842227  158.962901  61.960481  177.086809  16.287023  3.999506  4.80205  78.830569  0.582699  -10.286393  1.760661  -3.024936  11.976261  72.824489  12.773662  35.443779  -24.414984  -15.261743  -102.989089  39.964551  49.783007  -23.672445  21.766969  -0.351607  4.611821  16.328941  -0.099478  3.476628  
0.0  101.685394  0.0  -1.607441  -9.217757  -100.004138  22.296427  -27.714843  4.356451  -3.165905  13.157809  24.991671  1.690944  4.355661  3.317083  -5.583437  6.275779  -1.435761  3.799204  2.555166  17.583086  2.462279  0.391226  -0.593685  -4.17234  0.902648  2.013262  -11.326611  2.803558  5.331658  -11.326611  2.803558  5.331658  -15.32026  32.044555  9.974783  177.580332  68.561417  -163.415096  21.566189  10.165062  -4.047535  79.573791  3.063236  -4.397985  1.632829  -1.653024  15.184383  69.230285  10.988728  34.827371  -19.541822  -26.787044  -109.893686  36.909551  48.165207  -30.249285  20.874514  -1.383372  5.184519  15.668189  -0.861594  3.940949  
0.0  101.685394  0.0  -2.147211  -6.363661  -100.080171  21.206213  -28.564298  4.104999  -4.242296  13.810789  24.633617  1.517468  4.333129  3.276255  -6.251166  6.119563  -1.367206  2.570412  2.582827  18.38494  1.905915  0.652581  -0.614376  -4.43816  1.002645  1.974534  -12.048076  3.089541  5.196077  -12.048075  3.089541  5.196077  -19.768923  35.47772  8.10997  -173.59255  73.304511  -164.139787  16.716997  5.576748  -0.981422  82.503408  3.401089  -4.942758  1.497828  -0.294323  17.318322  67.84137  8.124095  34.113335  -17.338386  -33.205873  -113.133694  43.196651  47.540139  -25.372977  19.796867  -2.349112  4.984036  14.865881  -1.60243  3.818433  
0.0  101.685394  0.0  -2.690766  -4.031589  -100.249409  20.180747  -29.411363  3.913441  -4.926437  14.384537  24.50106  1.193223  4.245938  3.230273  -6.381978  5.740243  -1.311974  1.180074  2.757682  19.364379  1.431045  0.998379  -0.695739  -4.686981  1.043326  2.189054  -12.714238  3.260091  5.760184  -12.714239  3.260091  5.760184  -24.929162  35.990119  5.864237  -140.150187  72.126961  -137.743094  19.775816  -0.423114  5.504123  76.968604  3.495854  -11.035486  0.303425  0.727488  17.138378  68.579624  5.008977  34.675508  -18.486273  -32.705136  -112.799762  45.940228  48.352472  -19.232383  19.01491  -2.320597  3.764514  14.274155  -1.625212  2.898603  
0.0  101.685394  0.0  -3.158368  -2.730668  -100.237631  19.681149  -29.998452  3.485411  -5.084261  14.779674  24.643708  0.753299  4.078396  3.232069  -6.230168  5.14627  -1.72823  0.423824  3.048367  20.548921  1.086006  1.313088  -0.789199  -4.884344  1.008121  2.545782  -13.237408  3.251906  6.727795  -13.237408  3.251906  6.727796  -24.937123  31.949214  7.329401  -133.120295  63.565936  -126.457734  19.883669  -2.88723  7.736088  77.838491  2.536104  -10.923058  0.065723  0.867022  15.329904  69.168283  2.007814  36.333937  -20.235505  -29.054763  -112.353972  43.507158  50.009723  -17.70575  19.219704  -1.537789  2.033791  14.419213  -1.090645  1.575501  
0.0  101.685394  0.0  -3.409724  -2.162246  -100.089607  19.378362  -30.125661  2.976461  -4.95007  14.958245  24.936662  0.512803  3.932498  3.281355  -5.945834  4.607508  -2.396665  0.282084  3.353472  21.573373  0.813906  1.53228  -0.752897  -5.106944  0.84275  2.764019  -13.849901  2.870011  7.343138  -13.849901  2.870011  7.343137  -18.258419  28.50591  7.10301  -141.073584  57.680266  -129.818034  24.620515  -5.255514  12.243393  82.997851  2.201865  -9.863179  1.17233  1.767764  14.131853  68.916781  -0.587357  37.839886  -19.618046  -27.476933  -112.781552  42.681044  49.728098  -18.166441  20.196092  -0.334344  1.089042  15.147679  -0.215026  0.82891  
0.0  101.685394  0.0  -3.318002  -1.880914  -99.873933  18.809703  -29.758841  2.649855  -4.643261  14.930116  25.223956  0.783663  3.937881  3.398997  -5.970331  4.449561  -3.091472  0.73858  3.521229  22.250451  0.563967  1.659763  -0.639943  -5.275241  0.701856  2.784472  -14.322756  2.51012  7.420049  -14.322755  2.51012  7.420048  -12.359083  27.494071  6.781409  -158.672444  62.094507  -142.548191  23.733027  -7.464242  15.268028  80.951315  2.267271  -9.550212  2.658593  3.35356  15.472826  69.167061  -1.64451  37.705066  -17.346773  -28.385779  -113.161623  45.598676  48.776742  -16.530579  21.072288  0.266497  1.075192  15.803777  0.237307  0.798324  
0.0  101.685394  0.0  -2.991905  -1.680871  -99.784467  18.055441  -29.099035  2.732213  -3.176106  14.63481  26.426919  0.278906  3.664553  2.784651  -6.355721  4.759413  -3.439223  1.508112  3.461621  22.504728  0.515022  1.740235  -0.54233  -5.053135  0.590391  2.952937  -13.721108  2.217606  7.910724  -13.721107  2.217605  7.910724  -9.988336  27.414769  6.944019  178.822035  65.179982  -159.094244  19.832229  -10.830736  15.472486  75.555266  2.246877  -10.510129  1.990886  4.279815  15.477563  71.860217  -3.673865  36.846156  -16.70215  -29.736133  -113.096482  47.312067  49.299044  -14.129096  20.219147  0.337219  0.871427  15.163874  0.28213  0.64324  
0.0  101.685394  0.0  -2.316054  -2.028952  -99.337538  18.11567  -27.982713  2.549574  -2.878282  14.239374  26.527052  0.67154  3.772059  2.764957  -6.333115  5.571801  -3.872935  2.155264  3.180645  22.317113  0.457168  1.73483  -0.544892  -4.585488  0.672988  2.986201  -12.433822  2.393142  8.00458  -12.433822  2.393142  8.00458  -10.096285  26.903134  7.034568  162.635833  67.02927  -170.869537  14.013712  -11.728481  14.372806  73.872217  2.220288  -10.952816  0.629225  3.711488  15.788383  75.34922  -6.148652  35.649624  -16.51296  -32.095899  -113.731113  44.000855  51.106955  -15.116037  18.678697  -0.338795  0.913948  14.009525  -0.226399  0.696591  
0.0  101.685394  0.0  -1.23458  -5.14483  -99.807618  20.988535  -27.331239  3.353737  -2.873026  13.919629  26.351651  0.955398  3.845387  2.782584  -3.228121  6.503861  -3.207213  2.313413  2.898294  21.830742  0.641884  1.737904  -0.581864  -3.663081  0.897844  2.950567  -9.891746  2.889523  7.912529  -9.891746  2.889523  7.912529  -10.802955  27.200016  8.767254  155.962752  69.392634  -174.927672  8.895895  -11.732977  13.522269  75.309324  2.568542  -10.371648  -0.859757  2.665492  16.435653  77.580994  -8.589242  34.650635  -15.161896  -36.869451  -116.205652  46.94827  51.228414  -14.818725  17.310103  -1.111955  1.579807  12.985144  -0.789959  1.21749  
0.0  101.685394  0.0  -1.062893  -6.886763  -99.851078  22.955142  -27.32658  3.45764  -3.022823  13.749653  26.050695  1.075741  3.839956  2.83968  -1.454982  6.727061  -2.782883  2.052731  2.753756  21.189709  0.896903  1.653416  -0.624064  -3.251561  0.951593  2.93418  -8.762783  2.985158  7.880631  -8.762782  2.985158  7.880631  -10.980474  27.799139  9.726322  162.014717  70.064103  -167.612899  8.856434  -12.144207  12.058443  76.325967  2.727374  -10.397412  -1.080647  2.20526  16.884884  77.779661  -8.970274  34.273548  -15.102841  -38.34454  -116.596179  51.267757  50.467494  -13.316504  17.135009  -1.376828  1.987575  12.855273  -0.977796  1.530663  
0.0  101.685394  0.0  -0.696015  -6.374959  -99.246895  23.127547  -26.607874  3.041491  -3.261833  13.77041  25.693611  1.051593  3.706837  2.924449  -1.759994  7.438346  -2.984093  1.519846  2.731958  20.508113  1.103796  1.535145  -0.71995  -3.468869  0.980597  2.805713  -9.359524  3.071666  7.515377  -9.359524  3.071666  7.515377  -10.962931  28.173771  8.737719  174.464956  69.104383  -157.098873  12.9969  -11.626099  12.487554  76.722034  2.780375  -9.920185  -0.183383  2.180916  17.319746  76.092996  -6.91573  35.251988  -15.307558  -36.699186  -114.928214  53.096535  50.622787  -12.510492  17.86308  -1.174534  2.266888  13.401411  -0.815452  1.736217  
0.0  101.685394  0.0  -0.677436  -6.066338  -99.187189  23.274086  -26.482613  3.01809  -3.531892  13.875866  25.355396  1.022186  3.590251  3.009523  -1.567438  7.693612  -2.607638  0.764575  2.75635  19.946918  1.34761  1.552626  -0.835797  -3.637152  0.930828  2.742118  -9.827488  2.945614  7.340382  -9.827488  2.945614  7.340382  -11.274266  28.892136  7.928306  -169.676008  66.868391  -143.969584  19.977357  -10.408432  13.172196  77.600709  2.613412  -8.735099  0.547535  2.136783  16.888231  74.004095  -5.137453  36.800733  -16.009295  -33.808109  -113.027051  52.666079  50.909032  -12.578555  18.426119  -0.79894  2.463287  13.822849  -0.525475  1.873559  
